<svg width="16" height="15" viewBox="0 0 16 15" fill="none" xmlns="http://www.w3.org/2000/svg">
<path d="M14.6765 14.5L14.6765 7.5" stroke="#A0A0A0"/>
<line x1="0.5" y1="14.5" x2="0.5" y2="7.5" stroke="#A0A0A0"/>
<line x1="0.117676" y1="14" x2="15.1177" y2="14" stroke="#A0A0A0"/>
<path d="M7.61768 14.5V0.5" stroke="#A0A0A0"/>
<path d="M7.99725 0.825396C8.17696 0.615733 8.15268 0.300083 7.94302 0.120372C7.73336 -0.0593394 7.41771 -0.0350586 7.23799 0.174604L7.61762 0.5L7.99725 0.825396ZM7.61762 0.5L7.23799 0.174604L2.95228 5.1746L3.33191 5.5L3.71154 5.8254L7.99725 0.825396L7.61762 0.5Z" fill="#A0A0A0"/>
<path d="M7.2381 0.825396C7.05839 0.615733 7.08267 0.300083 7.29233 0.120372C7.502 -0.0593394 7.81765 -0.0350586 7.99736 0.174604L7.61773 0.5L7.2381 0.825396ZM7.61773 0.5L7.99736 0.174604L12.2831 5.1746L11.9034 5.5L11.5238 5.8254L7.2381 0.825396L7.61773 0.5Z" fill="#A0A0A0"/>
</svg>
